<svg width="83" height="94" viewBox="0 0 83 94" fill="none" xmlns="http://www.w3.org/2000/svg">
<g clip-path="url(#clip0_2963_4517)">
<path d="M82.9538 0H0.0693359V5.79848H82.9538V0Z" fill="url(#paint0_linear_2963_4517)"/>
<path d="M83 88.2014H0.0693359V93.9999H83V88.2014Z" fill="url(#paint1_linear_2963_4517)"/>
<path d="M78.3093 34.9296C78.9794 33.1045 79.534 31.4643 79.9961 29.8934H80.0424C80.0192 31.5567 80.1348 33.7745 80.2503 35.6226L80.5738 41.4211H82.2375L81.4057 28.207H79.2336L76.8767 34.6061C76.2759 36.2695 75.8138 37.7248 75.4672 39.0647H75.421C75.0975 37.6786 74.6353 36.2464 74.0808 34.6061L71.8394 28.207H69.6674L68.72 41.4211H70.3606L70.7303 35.7381C70.8458 33.7514 70.9382 31.5336 70.9844 29.8934H71.0307C71.4004 31.4643 71.9318 33.1739 72.5557 35.0451L74.7047 41.3287H75.9986L78.3324 34.9065L78.3093 34.9296Z" fill="url(#paint2_linear_2963_4517)"/>
<path d="M60.9792 27.999C57.4438 27.999 54.8558 30.7481 54.8558 34.9526C54.8558 39.1571 57.3052 41.6751 60.7943 41.6751C64.2835 41.6751 66.9407 39.2495 66.9407 34.6985C66.9407 30.7712 64.6069 28.0221 61.0023 28.0221L60.9792 27.999ZM60.8867 40.2659C58.2063 40.2659 56.6582 37.7479 56.6582 34.9064C56.6582 32.0649 58.0677 29.3851 60.9098 29.3851C63.752 29.3851 65.1384 32.1342 65.1384 34.7678C65.1384 37.771 63.6134 40.2659 60.9098 40.2659H60.8867Z" fill="url(#paint3_linear_2963_4517)"/>
<path d="M45.4744 41.444L40.9685 28.23H38.8889L34.4062 41.444H36.1623L37.5487 37.2858H42.2394L43.6489 41.444H45.4744ZM37.8953 35.9459L39.1893 32.1341C39.4435 31.3256 39.6515 30.517 39.8363 29.7316H39.8825C40.0674 30.4939 40.2753 31.2794 40.5757 32.1341L41.8697 35.9459H37.8953Z" fill="url(#paint4_linear_2963_4517)"/>
<path d="M8.2723 31.9725C8.2723 30.7712 7.85638 29.824 7.11696 29.2003C6.33132 28.5072 5.08355 28.1145 3.39675 28.1145C2.01033 28.1145 0.947414 28.23 0.138672 28.3686V41.421H1.84858V36.1076C2.2414 36.2231 2.70354 36.2231 3.235 36.2231C4.89869 36.2231 6.37754 35.738 7.27871 34.7677C7.94881 34.0747 8.29541 33.1506 8.29541 31.9494L8.2723 31.9725ZM3.235 34.8832C2.65732 34.8832 2.19519 34.837 1.82548 34.7446V29.6161C2.12587 29.5468 2.68043 29.4775 3.44296 29.4775C5.31462 29.4775 6.56239 30.3091 6.56239 32.0649C6.56239 33.8206 5.29151 34.8832 3.235 34.8832Z" fill="url(#paint5_linear_2963_4517)"/>
<path d="M15.7821 27.999C12.2467 27.999 9.63562 30.7481 9.63562 34.9526C9.63562 39.1571 12.085 41.6751 15.5741 41.6751C19.0632 41.6751 21.7205 39.2495 21.7205 34.6985C21.7205 30.7712 19.3867 28.0221 15.7821 28.0221V27.999ZM15.6665 40.2659C12.9861 40.2659 11.438 37.7479 11.438 34.9064C11.438 32.0649 12.8475 29.3851 15.6896 29.3851C18.5318 29.3851 19.8951 32.1342 19.8951 34.7678C19.8951 37.771 18.37 40.2659 15.6665 40.2659Z" fill="url(#paint6_linear_2963_4517)"/>
<path d="M33.1816 41.0053L32.835 39.6423C32.1418 39.9657 31.0788 40.1967 30.0621 40.1967C26.8503 40.1967 24.9786 38.1176 24.9786 34.8834C24.9786 31.395 27.0351 29.4314 30.1314 29.4314C31.2406 29.4314 32.1418 29.6624 32.8119 29.9858L33.2278 28.5998C32.7656 28.3687 31.7258 28.0222 30.0852 28.0222C25.9722 28.0222 23.1763 30.8175 23.1763 34.9758C23.1763 39.134 25.9722 41.6752 29.7386 41.6752C31.333 41.6752 32.5808 41.3518 33.2278 41.0515L33.1816 41.0053Z" fill="url(#paint7_linear_2963_4517)"/>
<path d="M54.8327 28.207H45.0354V29.6624H49.056V41.4442H50.789V29.6624H54.8327V28.207Z" fill="url(#paint8_linear_2963_4517)"/>
<path d="M43.0944 14.5079V12.6829H38.3806V23.5637H43.3023V21.7155H40.4833V18.7817H42.9788V17.0259H40.4833V14.5079H43.0944Z" fill="url(#paint9_linear_2963_4517)"/>
<path d="M59.8931 18.0885C59.8931 21.0686 60.8636 23.6791 63.336 23.6791C65.4156 23.6791 66.8714 22.0158 66.8714 17.9268C66.8714 15.4319 66.1088 12.5442 63.4746 12.5442C61.0715 12.5442 59.8931 15.1085 59.8931 18.0885ZM64.63 18.0192C64.63 20.237 64.3065 21.831 63.4053 21.831C62.5504 21.831 62.0882 20.5835 62.0882 18.1117C62.0882 15.7784 62.5735 14.3923 63.4053 14.3923C64.3758 14.3923 64.6531 16.1249 64.6531 18.0192H64.63Z" fill="url(#paint10_linear_2963_4517)"/>
<path d="M78.3093 21.0687H80.2503L80.7125 23.5637H82.769L80.6431 12.6829H78.1245L75.7676 23.5637H77.8241L78.3093 21.0687ZM78.9332 17.1646C79.0488 16.5408 79.2105 15.3857 79.3029 14.6696H79.3491C79.4416 15.3857 79.6033 16.4715 79.6958 17.1415L80.0424 19.4054H78.4942L78.9101 17.1646H78.9332Z" fill="url(#paint11_linear_2963_4517)"/>
<path d="M68.8354 12.6829V15.4319C68.8354 16.7025 68.743 17.9731 68.535 19.2206C68.3502 20.0984 68.1422 20.9301 67.7956 21.7618H67.0331L67.1255 25.9431H68.7199L68.8123 23.5868H73.5261L73.6185 25.9431H75.2129L75.3054 21.7849H74.4504V12.6829H68.8354ZM72.3477 21.7155H69.9677C70.1756 21.0456 70.3836 20.214 70.5222 19.4285C70.7071 18.2734 70.7764 17.0028 70.7764 15.7785V14.5079H72.3477V21.7155Z" fill="url(#paint12_linear_2963_4517)"/>
<path d="M13.0323 14.5079V12.6829H8.29535V23.5637H13.2402V21.7155H10.4212V18.7817H12.9167V17.0259H10.4212V14.5079H13.0323Z" fill="url(#paint13_linear_2963_4517)"/>
<path d="M56.7505 14.5079H59.6389V12.6829H54.6247V23.5637H56.7505V14.5079Z" fill="url(#paint14_linear_2963_4517)"/>
<path d="M6.4237 23.5637V12.6829H4.34408V17.6035C4.13612 17.719 3.78952 17.8114 3.46602 17.8114C2.61106 17.8114 2.28757 17.1877 2.28757 16.3098V12.6829H0.207947V16.5408C0.207947 18.3427 0.878047 19.5902 2.74971 19.5902C3.30427 19.5902 3.81262 19.4285 4.29787 19.2206H4.34408V23.5637H6.4237Z" fill="url(#paint15_linear_2963_4517)"/>
<path d="M20.9349 23.5637V12.6829H15.2506V17.6035C15.2506 19.7057 15.1119 20.8608 14.488 21.5307C14.3032 21.7155 14.0259 21.8542 13.7717 21.9235L14.2108 23.7023C14.7422 23.7023 15.2506 23.4944 15.6665 23.1709C17.0298 22.1083 17.2147 19.9136 17.2147 17.4187V14.531H18.8321V23.5637H20.958H20.9349Z" fill="url(#paint16_linear_2963_4517)"/>
<path d="M22.2982 18.0885C22.2982 21.0686 23.2686 23.6791 25.7411 23.6791C27.7976 23.6791 29.2533 22.0158 29.2533 17.9268C29.2533 15.4319 28.5139 12.5442 25.9028 12.5442C23.4997 12.5442 22.3213 15.1085 22.3213 18.0885H22.2982ZM27.0351 18.0192C27.0351 20.237 26.6885 21.831 25.8104 21.831C24.9323 21.831 24.4933 20.5835 24.4933 18.1117C24.4933 15.7784 24.9555 14.3923 25.7873 14.3923C26.7578 14.3923 27.0351 16.1249 27.0351 18.0192Z" fill="url(#paint17_linear_2963_4517)"/>
<path d="M36.1161 22.5473C36.6244 22.0159 36.9248 21.3229 36.9248 20.4219C36.9248 19.2206 36.2547 18.1811 34.9839 17.8115V17.7422C36.0699 17.2801 36.5782 16.333 36.5782 15.3627C36.5782 14.6003 36.3241 13.8842 35.7464 13.3991C34.9839 12.7522 34.0134 12.6367 32.9736 12.6367C32.0493 12.6367 31.2174 12.6829 30.5704 12.8446V23.5406C31.0557 23.6099 31.7258 23.6561 32.5345 23.6561C34.36 23.6561 35.4691 23.2634 36.1161 22.5473ZM32.6963 14.2769C32.8349 14.2307 33.0198 14.2076 33.2508 14.2076C34.1289 14.2076 34.4755 14.8314 34.4755 15.6168C34.4755 16.4947 33.8978 17.1646 33.1353 17.1646H32.6732V14.2769H32.6963ZM32.6963 18.7124H33.1584C33.9903 18.7124 34.7297 19.29 34.7297 20.3757C34.7297 21.4615 34.0134 22.0159 33.1584 22.0159C32.9736 22.0159 32.8349 22.0159 32.6963 21.9928V18.7355V18.7124Z" fill="url(#paint18_linear_2963_4517)"/>
<path d="M46.7915 18.9434H46.9532C47.8082 18.9434 48.1086 19.7519 48.3628 21.0456C48.5476 21.9004 48.7094 22.7782 48.9635 23.5637H51.0663C50.7428 22.5703 50.5579 21.5307 50.3269 20.4912C50.0265 19.1744 49.6568 18.1348 48.5476 17.719L51.0432 12.6829H48.7325L46.9532 17.4187H46.7915V12.6829H44.735V23.5637H46.7915V18.9665V18.9434Z" fill="url(#paint19_linear_2963_4517)"/>
<path d="M0 81.2712V76.674L3.3505 72.3309C7.74081 66.7403 11.3455 62.0738 11.3455 57.2225C11.3455 54.4503 9.82043 52.5791 7.00139 52.5791C4.85245 52.5791 3.11943 53.5263 1.91787 54.3117L0.6701 49.0215C2.24137 47.9819 5.17595 46.873 8.24916 46.873C15.6665 46.873 18.0927 51.8399 18.0927 56.7143C18.0927 63.0903 14.1183 68.2188 10.1901 72.7698L8.15674 75.1724V75.2879H18.5548V81.2943H0V81.2712Z" fill="url(#paint20_linear_2963_4517)"/>
<path d="M41.4538 64.1299C41.4538 76.3044 37.0173 81.7101 31.5178 81.7101C24.1005 81.7101 21.5818 73.1857 21.5818 64.4533C21.5818 54.6814 24.7244 46.873 31.7258 46.873C39.6746 46.873 41.4538 56.0212 41.4538 64.1299ZM28.4908 64.2916C28.3984 72.2385 29.392 75.8423 31.6796 75.8423C33.7823 75.8423 34.5448 72.0768 34.5448 64.2916C34.5448 56.9684 33.8747 52.7408 31.6796 52.7408C29.4844 52.7408 28.4446 56.3909 28.4908 64.2916Z" fill="url(#paint21_linear_2963_4517)"/>
<path d="M43.4179 81.2712V76.674L46.7684 72.3309C51.1587 66.7403 54.7634 62.0738 54.7634 57.2225C54.7634 54.4503 53.2383 52.5791 50.4193 52.5791C48.2703 52.5791 46.5373 53.5263 45.3358 54.3117L44.088 49.0215C45.6593 47.9819 48.5938 46.873 51.667 46.873C59.0844 46.873 61.5106 51.8399 61.5106 56.7143C61.5106 63.0903 57.5362 68.2188 53.608 72.7698L51.5746 75.1724V75.2879H61.9727V81.2943H43.3948L43.4179 81.2712Z" fill="url(#paint22_linear_2963_4517)"/>
<path d="M65.9009 74.7797C67.2642 75.5651 69.2052 76.0964 70.9844 76.0964C74.3349 76.0964 76.1603 74.0635 76.1603 71.1758C76.1603 67.4103 73.2258 65.8394 69.8291 65.7932H68.8817V60.7801H69.5518C72.0704 60.7339 75.2592 59.6713 75.2592 56.3909C75.2592 53.9421 73.7341 52.4636 71.331 52.4636C69.7597 52.4636 68.304 52.9949 67.0331 53.8266L66.0857 48.6519C67.4953 47.7509 70.2681 46.873 73.0871 46.873C79.0487 46.873 82.0757 50.7541 82.0757 55.0741C82.0757 58.47 80.1809 61.2884 77.1539 62.6976V62.8131C80.4582 63.8989 82.9538 66.902 82.9538 71.4299C82.9538 76.6047 78.9794 81.687 71.5621 81.687C68.8355 81.687 66.3861 81.0171 64.9073 80.1623L65.8547 74.7797H65.9009Z" fill="url(#paint23_linear_2963_4517)"/>
</g>
<defs>
<linearGradient id="paint0_linear_2963_4517" x1="-0.115519" y1="2.88769" x2="82.5841" y2="2.88769" gradientUnits="userSpaceOnUse">
<stop stop-color="#9F8E5A"/>
<stop offset="0.39" stop-color="#EBDAA3"/>
<stop offset="0.56" stop-color="#FAF2C7"/>
<stop offset="0.77" stop-color="#ECDCA6"/>
<stop offset="1" stop-color="#BAA569"/>
</linearGradient>
<linearGradient id="paint1_linear_2963_4517" x1="1.52274e-05" y1="91.0891" x2="82.5841" y2="91.0891" gradientUnits="userSpaceOnUse">
<stop stop-color="#9F8E5A"/>
<stop offset="0.39" stop-color="#EBDAA3"/>
<stop offset="0.56" stop-color="#FAF2C7"/>
<stop offset="0.77" stop-color="#ECDCA6"/>
<stop offset="1" stop-color="#BAA569"/>
</linearGradient>
<linearGradient id="paint2_linear_2963_4517" x1="-0.115502" y1="34.8141" x2="82.5841" y2="34.8141" gradientUnits="userSpaceOnUse">
<stop stop-color="#9F8E5A"/>
<stop offset="0.39" stop-color="#EBDAA3"/>
<stop offset="0.56" stop-color="#FAF2C7"/>
<stop offset="0.77" stop-color="#ECDCA6"/>
<stop offset="1" stop-color="#BAA569"/>
</linearGradient>
<linearGradient id="paint3_linear_2963_4517" x1="-0.115493" y1="34.814" x2="82.5841" y2="34.814" gradientUnits="userSpaceOnUse">
<stop stop-color="#9F8E5A"/>
<stop offset="0.39" stop-color="#EBDAA3"/>
<stop offset="0.56" stop-color="#FAF2C7"/>
<stop offset="0.77" stop-color="#ECDCA6"/>
<stop offset="1" stop-color="#BAA569"/>
</linearGradient>
<linearGradient id="paint4_linear_2963_4517" x1="-0.115525" y1="34.8139" x2="82.5841" y2="34.8139" gradientUnits="userSpaceOnUse">
<stop stop-color="#9F8E5A"/>
<stop offset="0.39" stop-color="#EBDAA3"/>
<stop offset="0.56" stop-color="#FAF2C7"/>
<stop offset="0.77" stop-color="#ECDCA6"/>
<stop offset="1" stop-color="#BAA569"/>
</linearGradient>
<linearGradient id="paint5_linear_2963_4517" x1="-0.115504" y1="34.7677" x2="82.5841" y2="34.7677" gradientUnits="userSpaceOnUse">
<stop stop-color="#9F8E5A"/>
<stop offset="0.39" stop-color="#EBDAA3"/>
<stop offset="0.56" stop-color="#FAF2C7"/>
<stop offset="0.77" stop-color="#ECDCA6"/>
<stop offset="1" stop-color="#BAA569"/>
</linearGradient>
<linearGradient id="paint6_linear_2963_4517" x1="-0.115492" y1="34.814" x2="82.5841" y2="34.814" gradientUnits="userSpaceOnUse">
<stop stop-color="#9F8E5A"/>
<stop offset="0.39" stop-color="#EBDAA3"/>
<stop offset="0.56" stop-color="#FAF2C7"/>
<stop offset="0.77" stop-color="#ECDCA6"/>
<stop offset="1" stop-color="#BAA569"/>
</linearGradient>
<linearGradient id="paint7_linear_2963_4517" x1="-0.115497" y1="34.8141" x2="82.5841" y2="34.8141" gradientUnits="userSpaceOnUse">
<stop stop-color="#9F8E5A"/>
<stop offset="0.39" stop-color="#EBDAA3"/>
<stop offset="0.56" stop-color="#FAF2C7"/>
<stop offset="0.77" stop-color="#ECDCA6"/>
<stop offset="1" stop-color="#BAA569"/>
</linearGradient>
<linearGradient id="paint8_linear_2963_4517" x1="-0.1155" y1="34.8141" x2="82.5841" y2="34.8141" gradientUnits="userSpaceOnUse">
<stop stop-color="#9F8E5A"/>
<stop offset="0.39" stop-color="#EBDAA3"/>
<stop offset="0.56" stop-color="#FAF2C7"/>
<stop offset="0.77" stop-color="#ECDCA6"/>
<stop offset="1" stop-color="#BAA569"/>
</linearGradient>
<linearGradient id="paint9_linear_2963_4517" x1="-0.115529" y1="18.1117" x2="82.584" y2="18.1117" gradientUnits="userSpaceOnUse">
<stop stop-color="#9F8E5A"/>
<stop offset="0.39" stop-color="#EBDAA3"/>
<stop offset="0.56" stop-color="#FAF2C7"/>
<stop offset="0.77" stop-color="#ECDCA6"/>
<stop offset="1" stop-color="#BAA569"/>
</linearGradient>
<linearGradient id="paint10_linear_2963_4517" x1="-0.11558" y1="18.1117" x2="82.5841" y2="18.1117" gradientUnits="userSpaceOnUse">
<stop stop-color="#9F8E5A"/>
<stop offset="0.39" stop-color="#EBDAA3"/>
<stop offset="0.56" stop-color="#FAF2C7"/>
<stop offset="0.77" stop-color="#ECDCA6"/>
<stop offset="1" stop-color="#BAA569"/>
</linearGradient>
<linearGradient id="paint11_linear_2963_4517" x1="-0.115457" y1="18.1117" x2="82.5841" y2="18.1117" gradientUnits="userSpaceOnUse">
<stop stop-color="#9F8E5A"/>
<stop offset="0.39" stop-color="#EBDAA3"/>
<stop offset="0.56" stop-color="#FAF2C7"/>
<stop offset="0.77" stop-color="#ECDCA6"/>
<stop offset="1" stop-color="#BAA569"/>
</linearGradient>
<linearGradient id="paint12_linear_2963_4517" x1="-0.115574" y1="19.2899" x2="2.31065" y2="19.2899" gradientUnits="userSpaceOnUse">
<stop stop-color="#9F8E5A"/>
<stop offset="0.39" stop-color="#EBDAA3"/>
<stop offset="0.56" stop-color="#FAF2C7"/>
<stop offset="0.77" stop-color="#ECDCA6"/>
<stop offset="1" stop-color="#BAA569"/>
</linearGradient>
<linearGradient id="paint13_linear_2963_4517" x1="-0.115566" y1="18.1117" x2="82.5841" y2="18.1117" gradientUnits="userSpaceOnUse">
<stop stop-color="#9F8E5A"/>
<stop offset="0.39" stop-color="#EBDAA3"/>
<stop offset="0.56" stop-color="#FAF2C7"/>
<stop offset="0.77" stop-color="#ECDCA6"/>
<stop offset="1" stop-color="#BAA569"/>
</linearGradient>
<linearGradient id="paint14_linear_2963_4517" x1="-0.115562" y1="18.1117" x2="82.584" y2="18.1117" gradientUnits="userSpaceOnUse">
<stop stop-color="#9F8E5A"/>
<stop offset="0.39" stop-color="#EBDAA3"/>
<stop offset="0.56" stop-color="#FAF2C7"/>
<stop offset="0.77" stop-color="#ECDCA6"/>
<stop offset="1" stop-color="#BAA569"/>
</linearGradient>
<linearGradient id="paint15_linear_2963_4517" x1="-1.53698e-05" y1="18.1117" x2="82.5841" y2="18.1117" gradientUnits="userSpaceOnUse">
<stop stop-color="#9F8E5A"/>
<stop offset="0.39" stop-color="#EBDAA3"/>
<stop offset="0.56" stop-color="#FAF2C7"/>
<stop offset="0.77" stop-color="#ECDCA6"/>
<stop offset="1" stop-color="#BAA569"/>
</linearGradient>
<linearGradient id="paint16_linear_2963_4517" x1="-0.115521" y1="18.181" x2="82.5841" y2="18.181" gradientUnits="userSpaceOnUse">
<stop stop-color="#9F8E5A"/>
<stop offset="0.39" stop-color="#EBDAA3"/>
<stop offset="0.56" stop-color="#FAF2C7"/>
<stop offset="0.77" stop-color="#ECDCA6"/>
<stop offset="1" stop-color="#BAA569"/>
</linearGradient>
<linearGradient id="paint17_linear_2963_4517" x1="-0.115545" y1="18.1117" x2="2.31068" y2="18.1117" gradientUnits="userSpaceOnUse">
<stop stop-color="#9F8E5A"/>
<stop offset="0.39" stop-color="#EBDAA3"/>
<stop offset="0.56" stop-color="#FAF2C7"/>
<stop offset="0.77" stop-color="#ECDCA6"/>
<stop offset="1" stop-color="#BAA569"/>
</linearGradient>
<linearGradient id="paint18_linear_2963_4517" x1="-0.115534" y1="18.1349" x2="82.5841" y2="18.1349" gradientUnits="userSpaceOnUse">
<stop stop-color="#9F8E5A"/>
<stop offset="0.39" stop-color="#EBDAA3"/>
<stop offset="0.56" stop-color="#FAF2C7"/>
<stop offset="0.77" stop-color="#ECDCA6"/>
<stop offset="1" stop-color="#BAA569"/>
</linearGradient>
<linearGradient id="paint19_linear_2963_4517" x1="-0.115513" y1="18.1117" x2="82.5841" y2="18.1117" gradientUnits="userSpaceOnUse">
<stop stop-color="#9F8E5A"/>
<stop offset="0.39" stop-color="#EBDAA3"/>
<stop offset="0.56" stop-color="#FAF2C7"/>
<stop offset="0.77" stop-color="#ECDCA6"/>
<stop offset="1" stop-color="#BAA569"/>
</linearGradient>
<linearGradient id="paint20_linear_2963_4517" x1="-0.115535" y1="64.0606" x2="82.5841" y2="64.0606" gradientUnits="userSpaceOnUse">
<stop stop-color="#9F8E5A"/>
<stop offset="0.39" stop-color="#EBDAA3"/>
<stop offset="0.56" stop-color="#FAF2C7"/>
<stop offset="0.77" stop-color="#ECDCA6"/>
<stop offset="1" stop-color="#BAA569"/>
</linearGradient>
<linearGradient id="paint21_linear_2963_4517" x1="-0.115539" y1="64.2916" x2="82.5841" y2="64.2916" gradientUnits="userSpaceOnUse">
<stop stop-color="#9F8E5A"/>
<stop offset="0.39" stop-color="#EBDAA3"/>
<stop offset="0.56" stop-color="#FAF2C7"/>
<stop offset="0.77" stop-color="#ECDCA6"/>
<stop offset="1" stop-color="#BAA569"/>
</linearGradient>
<linearGradient id="paint22_linear_2963_4517" x1="-0.115521" y1="64.0606" x2="82.5841" y2="64.0606" gradientUnits="userSpaceOnUse">
<stop stop-color="#9F8E5A"/>
<stop offset="0.39" stop-color="#EBDAA3"/>
<stop offset="0.56" stop-color="#FAF2C7"/>
<stop offset="0.77" stop-color="#ECDCA6"/>
<stop offset="1" stop-color="#BAA569"/>
</linearGradient>
<linearGradient id="paint23_linear_2963_4517" x1="-0.115548" y1="64.2916" x2="82.5841" y2="64.2916" gradientUnits="userSpaceOnUse">
<stop stop-color="#9F8E5A"/>
<stop offset="0.39" stop-color="#EBDAA3"/>
<stop offset="0.56" stop-color="#FAF2C7"/>
<stop offset="0.77" stop-color="#ECDCA6"/>
<stop offset="1" stop-color="#BAA569"/>
</linearGradient>
<clipPath id="clip0_2963_4517">
<rect width="83" height="94" fill="white"/>
</clipPath>
</defs>
</svg>
